Coordinates
version=1
nRows=12
nColumns=24
inDegrees=yes

Units are S.I. units (second, meters, Newtons, ...)
Angles are in degrees.

endheader
time	pelvis_tilt	pelvis_list	pelvis_rotation	pelvis_tx	pelvis_ty	pelvis_tz	hip_flexion_r	hip_adduction_r	hip_rotation_r	knee_angle_r	ankle_angle_r	subtalar_angle_r	mtp_angle_r	hip_flexion_l	hip_adduction_l	hip_rotation_l	knee_angle_l	ankle_angle_l	subtalar_angle_l	mtp_angle_l	lumbar_extension	lumbar_bending	lumbar_rotation
      1.95000000	     27.75351201	     -3.20050943	      1.64243739	      0.17885562	      0.92321636	      0.00948603	    -30.47514617	      5.91835968	     16.90582606	      4.79903245	      0.77740603	     -9.94602113	     24.69505899	    -19.29752151	     -4.19333418	     -4.19205675	    -55.64646495	     -5.64194456	    -20.98382891	     21.81785407	    -35.67517463	      5.39149349	      3.94164634
      1.95500000	     27.75756266	     -3.02146637	      1.42949659	      0.18379107	      0.92352012	      0.00986795	    -31.01129877	      5.60973377	     17.08353368	      5.16127204	      0.77274013	     -9.89300382	     24.62661805	    -18.56581524	     -3.81576941	     -4.05530330	    -55.32549791	     -4.64131610	    -20.89344127	     21.82091320	    -35.75644364	      5.12091518	      4.09939260
      1.96000000	     27.75583469	     -2.84984926	      1.23193681	      0.18870577	      0.92375650	      0.01020232	    -31.53015931	      5.31342111	     17.27703772	      5.50788701	      0.75939318	     -9.87775755	     24.55828741	    -17.83777302	     -3.43581732	     -3.88144672	    -54.91816814	     -3.67200242	    -20.78741819	     21.82481158	    -35.83120978	      4.86676697	      4.25649965
      1.96500000	     27.75610322	     -2.69069540	      1.04506809	      0.19356861	      0.92392581	      0.01049147	    -32.03527596	      5.03222554	     17.49897107	      5.83257708	      0.72623888	     -9.91850081	     24.48243158	    -17.11884177	     -3.05633886	     -3.66585004	    -54.43850947	     -2.70139058	    -20.59708298	     21.82217521	    -35.91347086	      4.63257643	      4.40875706
      1.97000000	     27.75310780	     -2.53930928	      0.87016040	      0.19844987	      0.92400917	      0.01076667	    -32.53999891	      4.76294745	     17.72080252	      6.16559537	      0.72852802	     -9.97071572	     24.42757633	    -16.41179512	     -2.68660136	     -3.44078564	    -53.87823583	     -1.80597184	    -20.46424397	     21.82249296	    -35.99079282	      4.40782827	      4.54932376
      1.97500000	     27.77727514	     -2.46812463	      0.62393706	      0.20309586	      0.92408522	      0.01114547	    -33.01108004	      4.53611003	     18.14055714	      6.40692070	      0.70987028	    -10.13315442	     24.36539020	    -15.74638134	     -2.38129005	     -3.28828720	    -53.24771376	     -0.90808815	    -20.22393143	     21.81858758	    -36.12949983	      4.22025977	      4.80363369
      1.98000000	     27.77811625	     -2.41109573	      0.41544402	      0.20774942	      0.92405837	      0.01144923	    -33.45554679	      4.33707501	     18.55394550	      6.65077596	      0.66437886	    -10.38725026	     24.30785270	    -15.06136254	     -2.09315400	     -3.07348854	    -52.55782762	     -0.05844700	    -20.02284659	     21.79236052	    -36.23896443	      4.06808458	      5.01942660
      1.98500000	     27.76764448	     -2.36269668	      0.24267240	      0.21244509	      0.92394305	      0.01167325	    -33.87531674	      4.16748334	     18.86023822	      6.85654763	      0.75560259	    -10.38854058	     24.31046530	    -14.37782185	     -1.81095829	     -2.81237865	    -51.79636481	      0.62558405	    -20.11815478	     21.81013814	    -36.32955906	      3.94456151	      5.21159691
      1.99000000	     27.83061110	     -2.31431765	      0.03114112	      0.21711240	      0.92384922	      0.01198364	    -34.39898776	      3.96556749	     19.29738198	      7.12816337	      0.73283868	    -10.72335767	     24.28283895	    -13.81300720	     -1.54205699	     -2.60344121	    -50.94095121	      1.34037323	    -19.85091411	     21.81791653	    -36.50212792	      3.78959830	      5.48059668
      1.99500000	     27.81457454	     -2.31676354	     -0.11051337	      0.22177129	      0.92359295	      0.01213788	    -34.78919155	      3.85460121	     19.64302337	      7.29386477	      0.82524084	    -10.77777821	     24.29240188	    -13.15289479	     -1.31973916	     -2.28461269	    -50.06175541	      1.95948913	    -19.94236352	     21.83303119	    -36.59218056	      3.73189171	      5.64146327
      2.00000000	     27.83122519	     -2.34183978	     -0.29885176	      0.22638846	      0.92330380	      0.01240083	    -35.24987311	      3.72142006	     20.25370044	      7.56466042	      0.62715009	    -11.58021359	     24.31902744	    -12.55692401	     -1.13920781	     -2.03919608	    -49.11911871	      2.59703466	    -19.74282421	     21.76657262	    -36.72289343	      3.66077618	      5.90690962
      2.00500000	     27.84933396	     -2.36620752	     -0.42777678	      0.23106788	      0.92295985	      0.01253106	    -35.67015531	      3.63511034	     20.56371855	      7.71125093	      0.79858150	    -11.59287624	     24.35531629	    -11.98406263	     -0.95333994	     -1.70151636	    -48.10371676	      3.08120888	    -19.86107804	     21.77228384	    -36.84557720	      3.62548450	      6.09188751
